<svg width="36" height="34" viewBox="0 0 36 34" fill="none" xmlns="http://www.w3.org/2000/svg">
<g id="Search">
<path id="Vector" d="M29.0341 3.57203C28.8153 3.49912 28.8153 3.19025 29.0341 3.11734L30.3181 2.68983C30.6003 2.59573 30.8568 2.43719 31.0671 2.22677C31.2774 2.01635 31.4359 1.75983 31.5298 1.47756L31.9574 0.194363C32.0303 -0.0243638 32.3392 -0.0243638 32.4121 0.194363L32.8397 1.47822C32.9338 1.76045 33.0923 2.01687 33.3028 2.22718C33.5132 2.43749 33.7698 2.59589 34.0521 2.68983L35.3354 3.11734C35.3833 3.13306 35.425 3.16351 35.4546 3.20433C35.4842 3.24516 35.5001 3.29428 35.5001 3.34469C35.5001 3.3951 35.4842 3.44422 35.4546 3.48504C35.425 3.52587 35.3833 3.55631 35.3354 3.57203L34.0514 3.99954C33.7692 4.09358 33.5128 4.25202 33.3025 4.46232C33.0922 4.67262 32.9337 4.929 32.8397 5.21115L32.4121 6.49501C32.3964 6.54291 32.3659 6.58462 32.3251 6.61418C32.2843 6.64375 32.2352 6.65967 32.1847 6.65967C32.1343 6.65967 32.0852 6.64375 32.0444 6.61418C32.0035 6.58462 31.9731 6.54291 31.9574 6.49501L31.5298 5.21115C31.4358 4.929 31.2773 4.67262 31.067 4.46232C30.8567 4.25202 30.6003 4.09358 30.3181 3.99954L29.0341 3.57203ZM25.654 6.13246C25.6253 6.12295 25.6004 6.10464 25.5826 6.08013C25.5649 6.05562 25.5554 6.02615 25.5554 5.99592C25.5554 5.96568 25.5649 5.93622 25.5826 5.9117C25.6004 5.88719 25.6253 5.86889 25.654 5.85938L26.4243 5.60287C26.7677 5.48821 27.0368 5.21911 27.1515 4.87577L27.408 4.10559C27.4175 4.07689 27.4358 4.05191 27.4604 4.03421C27.4849 4.0165 27.5143 4.00697 27.5446 4.00697C27.5748 4.00697 27.6043 4.0165 27.6288 4.03421C27.6533 4.05191 27.6716 4.07689 27.6811 4.10559L27.9377 4.87577C27.9941 5.0451 28.0892 5.19897 28.2154 5.32517C28.3416 5.45138 28.4955 5.54646 28.6648 5.60287L29.4351 5.85938C29.4638 5.86888 29.4888 5.88719 29.5065 5.9117C29.5242 5.93622 29.5337 5.96568 29.5337 5.99592C29.5337 6.02615 29.5242 6.05562 29.5065 6.08013C29.4888 6.10464 29.4638 6.12295 29.4351 6.13246L28.6648 6.38896C28.4955 6.44538 28.3416 6.54046 28.2154 6.66666C28.0892 6.79287 27.9941 6.94673 27.9377 7.11606L27.6811 7.88625C27.6716 7.91495 27.6533 7.93993 27.6288 7.95763C27.6043 7.97533 27.5748 7.98486 27.5446 7.98486C27.5143 7.98486 27.4849 7.97533 27.4604 7.95763C27.4358 7.93993 27.4175 7.91495 27.408 7.88625L27.1515 7.11606C27.0951 6.94673 27 6.79287 26.8738 6.66666C26.7475 6.54046 26.5937 6.44538 26.4243 6.38896L25.654 6.13246ZM24.9587 1.44707C24.9398 1.44053 24.9234 1.42827 24.9119 1.41199C24.9003 1.39572 24.894 1.37624 24.894 1.35627C24.894 1.33629 24.9003 1.31681 24.9119 1.30054C24.9234 1.28426 24.9398 1.272 24.9587 1.26546L25.4717 1.09446C25.7011 1.01823 25.8807 0.838613 25.957 0.609281L26.128 0.0962681C26.1345 0.0773959 26.1468 0.0610299 26.1631 0.0494475C26.1794 0.0378656 26.1988 0.0316424 26.2188 0.0316424C26.2388 0.0316424 26.2583 0.0378656 26.2745 0.0494475C26.2908 0.0610298 26.3031 0.0773959 26.3096 0.0962681L26.4807 0.609281C26.5183 0.722298 26.5817 0.824992 26.6659 0.909213C26.7501 0.993433 26.8529 1.05686 26.9659 1.09446L27.479 1.26546C27.4978 1.272 27.5142 1.28426 27.5258 1.30054C27.5374 1.31681 27.5436 1.33629 27.5436 1.35627C27.5436 1.37624 27.5374 1.39572 27.5258 1.41199C27.5142 1.42827 27.4978 1.44053 27.479 1.44707L26.9659 1.61807C26.8529 1.65567 26.7501 1.7191 26.6659 1.80332C26.5817 1.88754 26.5183 1.99023 26.4807 2.10325L26.3096 2.6156C26.3031 2.63447 26.2908 2.65084 26.2745 2.66242C26.2583 2.674 26.2388 2.68022 26.2188 2.68022C26.1988 2.68022 26.1794 2.674 26.1631 2.66242C26.1468 2.65084 26.1345 2.63447 26.128 2.6156L25.957 2.10259C25.8807 1.87326 25.7011 1.69363 25.4717 1.61741L24.9587 1.44707Z" fill="white"/>
<path id="Vector_2" d="M31.3083 30.7227L24.2155 23.3894C25.9232 21.0391 26.845 18.1782 26.8419 15.2386C26.8419 7.73004 20.9334 1.62122 13.6709 1.62122C6.40853 1.62122 0.5 7.73004 0.5 15.2386C0.5 22.7472 6.40853 28.8561 13.6709 28.8561C16.5142 28.8593 19.2812 27.9062 21.5545 26.1407L28.6473 33.4739C29.0064 33.8057 29.4746 33.9829 29.956 33.9689C30.4374 33.955 30.8954 33.7511 31.2359 33.399C31.5764 33.0469 31.7737 32.5734 31.7871 32.0757C31.8006 31.578 31.6293 31.0939 31.3083 30.7227ZM4.26313 15.2386C4.26313 13.3149 4.81489 11.4343 5.84863 9.83475C6.88237 8.2352 8.35167 6.9885 10.0707 6.25231C11.7898 5.51612 13.6814 5.32349 15.5063 5.6988C17.3313 6.07411 19.0076 7.00049 20.3233 8.3608C21.639 9.72111 22.535 11.4542 22.898 13.341C23.261 15.2278 23.0747 17.1836 22.3626 18.9609C21.6506 20.7382 20.4448 22.2573 18.8976 23.3261C17.3505 24.3949 15.5316 24.9654 13.6709 24.9654C11.1768 24.9623 8.78558 23.9365 7.02192 22.1131C5.25826 20.2896 4.26612 17.8174 4.26313 15.2386Z" fill="white"/>
</g>
</svg>
