<svg width="60" height="58" viewBox="0 0 60 58" fill="none" xmlns="http://www.w3.org/2000/svg">
<g id="send">
<rect x="60" y="58" width="60" height="58" rx="10.0885" transform="rotate(180 60 58)" fill="#272B34"/>
<path id="Vector" d="M31.8496 28.9985L39.0151 28.9985M16.0174 29.7961C15.8649 29.7233 15.7365 29.6099 15.6466 29.4689C15.5568 29.3279 15.5092 29.165 15.5093 28.9987C15.5095 28.8324 15.5573 28.6696 15.6473 28.5287C15.7374 28.3878 15.866 28.2747 16.0186 28.2021L43.312 15.3121C43.4752 15.2351 43.6582 15.208 43.8373 15.2342C44.0165 15.2605 44.1834 15.3389 44.3165 15.4594C44.4496 15.5798 44.5427 15.7367 44.5838 15.9097C44.6249 16.0826 44.612 16.2637 44.5469 16.4294L39.7424 28.6811C39.6623 28.8854 39.6623 29.1116 39.7424 29.3159L44.5457 41.5687C44.6103 41.7342 44.6227 41.9149 44.5815 42.0875C44.5403 42.26 44.4473 42.4165 44.3145 42.5367C44.1816 42.6569 44.0151 42.7352 43.8364 42.7616C43.6577 42.788 43.475 42.7613 43.312 42.6848L16.0174 29.7961Z" stroke="white" stroke-width="3" stroke-linecap="round" stroke-linejoin="round"/>
</g>
</svg>
